# xmcd
#
# Track frame offsets:
# 150
# 12827
# 26070
# 38340
# 51073
# 62763
# 75110
# 87058
# 99604
# 111390
# 123785
# 134937
# 146527
# 156498
# 168153
# 180652
# 194120
# 205032
# 216211
# 230024
#
# Disc length: 3230 seconds
#
#
# Revision: 0
# Processed by: cddbd v1.5.2PL0 Copyright (c) Steve Scherf et al.
# Submitted via: FreeRIP 2.96 
#
DISCID=130c9c14
DTITLE=Hank Williams - Legends of Country Music - CD2
DYEAR=2008
DGENRE=Country
TTITLE0=I'm So Lonesome I Could Cry
TTITLE1=Mind Your Own Business
TTITLE2=Lost Highway
TTITLE3=I Just Don't Like This Kind Of Livin'
TTITLE4=My Son Calls Another Man Daddy
TTITLE5=I'm Sorry For You My Friend
TTITLE6=Why Should We Try Anymore?
TTITLE7=They'll Never Take Her Love From Me
TTITLE8=Dear John
TTITLE9=Howlin' At The Moon
TTITLE10=(I Heard That) Lonesome Whistle
TTITLE11=Baby, We're Really In Love
TTITLE12=Honky Tonk Blues
TTITLE13=Window Shopping
TTITLE14=I Won't Be Home No More
TTITLE15=You're Gonna Change (Or I'm Gonna Leave)
TTITLE16=I Can't Help It (If I'm Still In Love With You)
TTITLE17=Crazy Heart
TTITLE18=Ramblin' Man
TTITLE19=I Saw The Light
EXTD=
EXTT0=
EXTT1=
EXTT2=
EXTT3=
EXTT4=
EXTT5=
EXTT6=
EXTT7=
EXTT8=
EXTT9=
EXTT10=
EXTT11=
EXTT12=
EXTT13=
EXTT14=
EXTT15=
EXTT16=
EXTT17=
EXTT18=
EXTT19=
PLAYORDER=
